<svg width="459" height="480" viewBox="0 0 459 480" fill="none" xmlns="http://www.w3.org/2000/svg">
<rect width="459" height="480" fill="#F7F7F7"/>
<path fill-rule="evenodd" clip-rule="evenodd" d="M190.551 166.639C191.123 166.257 191.796 166.052 192.485 166.052C193.408 166.052 194.293 166.419 194.946 167.072C195.599 167.725 195.965 168.61 195.965 169.533C195.965 170.221 195.761 170.894 195.379 171.467C194.996 172.039 194.453 172.485 193.817 172.748C193.181 173.012 192.481 173.081 191.806 172.947C191.131 172.812 190.51 172.481 190.024 171.994C189.537 171.507 189.205 170.887 189.071 170.212C188.937 169.537 189.006 168.837 189.269 168.201C189.533 167.565 189.979 167.021 190.551 166.639ZM175.415 194.884L148.943 217.233C147.308 218.611 146.49 219.625 146.49 220.276C146.493 220.376 146.527 220.473 146.589 220.552C146.651 220.631 146.737 220.687 146.834 220.713C147.132 220.82 147.454 220.838 147.761 220.765H174.563C176.409 220.765 178.179 221.499 179.485 222.804C180.79 224.11 181.524 225.88 181.524 227.726H146.804C144.317 227.731 142.371 227.144 140.965 225.966C140.283 225.411 139.739 224.706 139.373 223.907C139.007 223.107 138.831 222.235 138.856 221.356C138.859 219.786 139.398 218.136 140.475 216.406C141.721 214.492 143.297 212.815 145.13 211.453L171.508 188.992C172.099 188.622 172.629 188.161 173.078 187.628C173.665 186.973 173.961 186.446 173.961 186.054C173.961 185.601 173.534 185.399 172.682 185.47H145.941C144.095 185.47 142.324 184.737 141.019 183.432C139.713 182.126 138.98 180.356 138.98 178.509H173.748C176.24 178.507 178.169 179.089 179.535 180.255C180.204 180.818 180.736 181.526 181.092 182.324C181.448 183.122 181.619 183.991 181.591 184.865C181.591 186.431 181.071 188.102 180.024 189.863C178.818 191.812 177.254 193.515 175.415 194.884ZM189.004 178.704V227.726H195.965V185.665C195.965 183.819 195.232 182.048 193.926 180.743C192.621 179.437 190.85 178.704 189.004 178.704ZM247.573 178.021C250.282 178.116 252.926 178.871 255.276 180.221C257.761 181.657 259.826 183.72 261.265 186.203C262.735 188.715 263.497 191.577 263.471 194.487V227.726H256.499V194.192C256.396 191.705 255.343 189.353 253.557 187.619C252.688 186.747 251.655 186.055 250.518 185.585C249.38 185.115 248.16 184.875 246.929 184.879C245.698 184.884 244.48 185.132 243.346 185.611C242.212 186.09 241.184 186.789 240.322 187.668C239.429 188.561 238.725 189.625 238.254 190.797C237.782 191.969 237.552 193.224 237.578 194.487V227.733H230.614V196.356C230.538 195.736 230.506 195.112 230.516 194.487V193.407C230.295 191.071 229.21 188.902 227.473 187.324C225.673 185.693 223.313 184.819 220.884 184.883C218.456 184.947 216.146 185.944 214.434 187.668C213.541 188.562 212.838 189.626 212.366 190.798C211.895 191.969 211.664 193.224 211.689 194.487V227.726H204.631V194.487V194.285V178.703C205.792 178.702 206.935 178.992 207.955 179.547C208.975 180.101 209.84 180.902 210.471 181.877C211.204 181.258 211.989 180.704 212.818 180.221C215.169 178.871 217.813 178.116 220.522 178.021C223.23 177.927 225.921 178.496 228.359 179.679C230.569 180.781 232.51 182.354 234.046 184.288C235.579 182.352 237.522 180.778 239.735 179.679C242.174 178.496 244.865 177.927 247.573 178.021ZM305.862 181.982C302.115 179.808 297.856 178.676 293.525 178.704C289.203 178.668 284.952 179.801 281.221 181.982C277.513 184.121 274.434 187.199 272.294 190.906C270.127 194.633 268.982 198.867 268.975 203.178C268.968 207.489 270.098 211.727 272.251 215.462C274.405 219.197 277.506 222.297 281.241 224.451C284.976 226.604 289.213 227.734 293.525 227.726H304.209C304.21 226.825 304.033 225.933 303.688 225.1C303.343 224.268 302.838 223.511 302.201 222.874C301.564 222.237 300.807 221.732 299.975 221.387C299.142 221.043 298.25 220.866 297.349 220.866H293.506C290.4 220.892 287.347 220.06 284.683 218.462C282.043 216.902 279.848 214.689 278.309 212.036C276.764 209.352 275.95 206.309 275.95 203.211C275.95 200.114 276.764 197.071 278.309 194.386C279.844 191.749 282.041 189.558 284.683 188.031C287.368 186.49 290.41 185.68 293.506 185.68C296.602 185.68 299.644 186.49 302.329 188.031C304.978 189.565 307.189 191.754 308.751 194.386C310.347 197.051 311.179 200.103 311.155 203.209V227.726H318.116V203.209C318.149 198.888 317.015 194.637 314.834 190.906C312.682 187.193 309.587 184.114 305.862 181.982ZM198.796 267.664C202.509 269.838 205.585 272.951 207.716 276.689C209.886 280.403 211.022 284.631 211.005 288.932V289.097V292.331H169.034C169.841 296.321 172.006 299.908 175.161 302.481C177.978 304.897 181.515 306.314 185.221 306.511H196.751C198.215 306.511 199.642 306.971 200.832 307.825C202.021 308.68 202.912 309.886 203.379 311.273C203.627 311.995 203.753 312.753 203.753 313.517H186.025H185.229C181.299 313.358 177.472 312.222 174.092 310.212C173.086 309.618 172.121 308.956 171.206 308.23C168.758 306.3 166.695 303.927 165.123 301.236C162.907 297.517 161.752 293.262 161.785 288.932C161.756 284.595 162.906 280.331 165.112 276.595C167.269 272.874 170.363 269.781 174.084 267.623C177.846 265.463 182.108 264.33 186.445 264.338C190.783 264.345 195.042 265.492 198.796 267.664ZM175.161 275.265C171.989 277.804 169.847 281.41 169.135 285.411L203.757 285.407C202.954 281.441 200.805 277.875 197.674 275.313C194.522 272.645 190.506 271.216 186.376 271.294C182.285 271.243 178.309 272.651 175.161 275.265ZM226.244 298.257C224.643 295.594 223.81 292.541 223.836 289.434V271.388H238.349C238.348 269.569 237.625 267.825 236.338 266.539C235.052 265.252 233.308 264.529 231.489 264.528H223.843V252.266C223.842 250.447 223.119 248.703 221.833 247.416C220.547 246.13 218.802 245.407 216.983 245.406L216.882 289.434C216.85 293.762 218.003 298.017 220.217 301.737C222.379 305.443 225.472 308.519 229.189 310.661C232.92 312.845 237.171 313.98 241.493 313.947V307.079C238.387 307.108 235.333 306.278 232.67 304.679C230.02 303.115 227.809 300.906 226.244 298.257ZM142.281 289.434C142.254 292.54 143.084 295.593 144.681 298.257C146.247 300.901 148.451 303.109 151.092 304.679C153.757 306.274 156.81 307.104 159.915 307.079V313.94C155.597 313.973 151.351 312.84 147.623 310.661C145.66 309.525 143.862 308.123 142.281 306.496C140.886 305.06 139.669 303.463 138.655 301.737C136.441 298.017 135.288 293.762 135.32 289.434L135.417 245.406C137.237 245.406 138.982 246.129 140.269 247.415C141.556 248.701 142.28 250.446 142.281 252.266V289.434ZM256.742 298.257C255.144 295.593 254.313 292.54 254.342 289.434V271.388H268.847C268.846 270.487 268.668 269.594 268.323 268.761C267.977 267.928 267.471 267.172 266.833 266.535C266.194 265.898 265.437 265.392 264.604 265.048C263.77 264.704 262.877 264.527 261.976 264.528H254.349V252.273C254.348 250.452 253.624 248.706 252.336 247.418C251.049 246.131 249.303 245.407 247.481 245.406L247.395 289.434C247.365 293.762 248.518 298.017 250.73 301.737C252.892 305.443 255.985 308.519 259.703 310.661C263.433 312.845 267.684 313.98 272.006 313.947V307.079C268.9 307.108 265.846 306.278 263.183 304.679C260.528 303.117 258.311 300.908 256.742 298.257ZM311.267 267.47C315.037 269.641 318.166 272.77 320.337 276.539H320.352C322.533 280.336 323.681 284.638 323.681 289.017C323.681 293.395 322.533 297.697 320.352 301.494C318.169 305.241 315.042 308.35 311.282 310.511C307.495 312.696 303.2 313.846 298.828 313.846C294.455 313.846 290.16 312.696 286.373 310.511C282.612 308.352 279.484 305.242 277.303 301.494C275.076 297.722 273.913 293.417 273.939 289.037C273.928 284.667 275.071 280.372 277.252 276.586C279.432 272.799 282.573 269.654 286.358 267.47C290.144 265.283 294.44 264.131 298.813 264.131C303.185 264.131 307.481 265.283 311.267 267.47ZM307.798 304.484C310.505 302.919 312.752 300.669 314.314 297.961V297.965C315.887 295.236 316.716 292.142 316.716 288.992C316.716 285.843 315.887 282.748 314.314 280.02C312.752 277.311 310.505 275.06 307.798 273.493C305.07 271.918 301.976 271.088 298.826 271.088C295.676 271.088 292.581 271.918 289.853 273.493C287.147 275.059 284.9 277.308 283.337 280.016C281.762 282.744 280.933 285.839 280.933 288.989C280.933 292.138 281.762 295.233 283.337 297.961C284.899 300.669 287.147 302.919 289.853 304.484C292.582 306.056 295.677 306.883 298.826 306.883C301.975 306.883 305.069 306.056 307.798 304.484Z" fill="#DFDFDF"/>
</svg>
