<svg width="24" height="24" viewBox="0 0 24 24" fill="none" xmlns="http://www.w3.org/2000/svg">
    <mask id="path-1-inside-1_12027_26414" fill="white">
        <path fill-rule="evenodd" clip-rule="evenodd" d="M9 4H8V6.05001C6.85888 6.28164 6 7.29052 6 8.5C6 9.70948 6.85888 10.7184 8 10.95V20H9V10.95C10.1411 10.7184 11 9.70948 11 8.5C11 7.29052 10.1411 6.28164 9 6.05001V4ZM15 17.95V20H16V17.95C17.1411 17.7184 18 16.7095 18 15.5C18 14.2905 17.1411 13.2816 16 13.05L16 4H15L15 13.05C13.8589 13.2816 13 14.2905 13 15.5C13 16.7095 13.8589 17.7184 15 17.95Z"/>
    </mask>
<!--    <path fill-rule="evenodd" clip-rule="evenodd" d="M9 4H8V6.05001C6.85888 6.28164 6 7.29052 6 8.5C6 9.70948 6.85888 10.7184 8 10.95V20H9V10.95C10.1411 10.7184 11 9.70948 11 8.5C11 7.29052 10.1411 6.28164 9 6.05001V4ZM15 17.95V20H16V17.95C17.1411 17.7184 18 16.7095 18 15.5C18 14.2905 17.1411 13.2816 16 13.05L16 4H15L15 13.05C13.8589 13.2816 13 14.2905 13 15.5C13 16.7095 13.8589 17.7184 15 17.95Z" fill="white"/>-->
    <path d="M8 4V3H7V4H8ZM9 4H10V3H9V4ZM8 6.05001L8.19893 7.03002L9 6.86741V6.05001H8ZM8 10.95H9V10.1326L8.19893 9.96998L8 10.95ZM8 20H7V21H8V20ZM9 20V21H10V20H9ZM9 10.95L8.80107 9.96998L8 10.1326V10.95H9ZM9 6.05001H8V6.86741L8.80107 7.03002L9 6.05001ZM15 20H14V21H15V20ZM15 17.95H16V17.1326L15.1989 16.97L15 17.95ZM16 20V21H17V20H16ZM16 17.95L15.8011 16.97L15 17.1326V17.95H16ZM16 13.05H15V13.8674L15.8011 14.03L16 13.05ZM16 4L17 4V3H16V4ZM15 4V3H14V4L15 4ZM15 13.05L15.1989 14.03L16 13.8674V13.05H15ZM8 5H9V3H8V5ZM9 6.05001V4H7V6.05001H9ZM7 8.5C7 7.77548 7.51468 7.16892 8.19893 7.03002L7.80107 5.07C6.20308 5.39437 5 6.80557 5 8.5H7ZM8.19893 9.96998C7.51468 9.83108 7 9.22452 7 8.5H5C5 10.1944 6.20308 11.6056 7.80107 11.93L8.19893 9.96998ZM9 20V10.95H7V20H9ZM9 19H8V21H9V19ZM8 10.95V20H10V10.95H8ZM10 8.5C10 9.22452 9.48532 9.83108 8.80107 9.96998L9.19893 11.93C10.7969 11.6056 12 10.1944 12 8.5H10ZM8.80107 7.03002C9.48532 7.16892 10 7.77548 10 8.5H12C12 6.80557 10.7969 5.39437 9.19893 5.07L8.80107 7.03002ZM8 4V6.05001H10V4H8ZM16 20V17.95H14V20H16ZM16 19H15V21H16V19ZM15 17.95V20H17V17.95H15ZM17 15.5C17 16.2245 16.4853 16.8311 15.8011 16.97L16.1989 18.93C17.7969 18.6056 19 17.1944 19 15.5H17ZM15.8011 14.03C16.4853 14.1689 17 14.7755 17 15.5H19C19 13.8056 17.7969 12.3944 16.1989 12.07L15.8011 14.03ZM15 4L15 13.05H17L17 4L15 4ZM15 5H16V3H15V5ZM16 13.05L16 4L14 4L14 13.05H16ZM14 15.5C14 14.7755 14.5147 14.1689 15.1989 14.03L14.8011 12.07C13.2031 12.3944 12 13.8056 12 15.5H14ZM15.1989 16.97C14.5147 16.8311 14 16.2245 14 15.5H12C12 17.1944 13.2031 18.6056 14.8011 18.93L15.1989 16.97Z" fill="#404040" mask="url(#path-1-inside-1_12027_26414)"/>
</svg>
